<svg class="icon-cart" xmlns="http://www.w3.org/2000/svg" width="18.643" height="19.752" viewBox="0 0 18.643 19.752">
  <g id="Shopping_cart_icon_10" transform="translate(9.322 9.876)">
    <g id="Shopping_cart_icon_10-2" transform="translate(-9.322 -9.876)">
      <path class="path" id="path_30099"  d="M32.783,3.693a1.029,1.029,0,0,0-.8-.377h-13.4l-.456-1.567h0a2,2,0,0,0-1.5-1.385L14.994.011a.514.514,0,0,0-.215,1l1.638.351a.977.977,0,0,1,.731.675l2.993,10.283c-.067.031-.133.066-.2.1a2.077,2.077,0,0,0-.755.777,2.143,2.143,0,0,0-.262.989h0v.053h0a2.127,2.127,0,0,0,2.127,2.075h9.628a.514.514,0,0,0,0-1.027H21.055a1.091,1.091,0,0,1-.428-.086,1.1,1.1,0,0,1-.485-.4,1.045,1.045,0,0,1,.048-1.256,1.064,1.064,0,0,1,.283-.243,1.306,1.306,0,0,1,.4-.153l9.677-1.575a1.542,1.542,0,0,0,1.263-1.214l1.184-5.819h0a1.049,1.049,0,0,0,.02-.2A1.029,1.029,0,0,0,32.783,3.693ZM30.8,10.163a.514.514,0,0,1-.421.405l-9.246,1.5-2.25-7.73h13.1Z" transform="translate(-14.372 0)" fill=""/>
      <path class="path" id="path_30100"  d="M163.316,438.744a1.416,1.416,0,1,0,.513.624A1.416,1.416,0,0,0,163.316,438.744Zm-.266,1.4a.576.576,0,0,1-.207.252.572.572,0,0,1-.542.053.576.576,0,0,1-.252-.208A.574.574,0,0,1,162,439.7a.575.575,0,0,1,.208-.252.566.566,0,0,1,.319-.1.572.572,0,0,1,.527.794Z" transform="translate(-155.444 -421.585)" fill=""/>
      <path class="path" id="path_30101"  d="M364.849,438.744a1.416,1.416,0,1,0,.513.624A1.416,1.416,0,0,0,364.849,438.744Zm-.267,1.4a.573.573,0,0,1-.208.252.571.571,0,0,1-.541.053.577.577,0,0,1-.252-.208.575.575,0,0,1-.052-.541.573.573,0,0,1,.208-.252.565.565,0,0,1,.319-.1.572.572,0,0,1,.527.794Z" transform="translate(-349.203 -421.585)" fill=""/>
    </g>
  </g>
</svg>
